<svg width="442" height="138" viewBox="0 0 442 138" fill="none" xmlns="http://www.w3.org/2000/svg">
<rect width="139.353" height="138" rx="16" fill="#E31D38"/>
<path fill-rule="evenodd" clip-rule="evenodd" d="M48.7059 25.7057H60.8823V108.235H48.7059V25.7057ZM33.8235 75.7646H46V102.823H33.8235V75.7646ZM75.7647 64.9411H63.5883V113.647H75.7647V64.9411ZM78.4706 70.3528H90.6471V108.235H78.4706V70.3528ZM105.529 41.9411H93.3529V102.823H105.529V41.9411Z" fill="#FFFAFA"/>
<path d="M392.952 28.4811C393.002 28.4364 393.066 28.4117 393.133 28.4117H417.347C417.596 28.4117 417.713 28.7193 417.527 28.8846L378.914 63.1906C378.857 63.2419 378.824 63.3155 378.824 63.3929V68.5112C378.824 68.5894 378.857 68.6638 378.916 68.7152L417.514 102.349C417.703 102.513 417.587 102.824 417.336 102.824H393.133C393.066 102.824 393.002 102.799 392.952 102.754L364.031 76.7595C363.974 76.7081 363.941 76.635 363.941 76.5582V54.677C363.941 54.6003 363.974 54.5271 364.031 54.4758L392.952 28.4811Z" fill="white"/>
<path d="M424.824 28.4117H442V104.176H424.824V28.4117Z" fill="white"/>
<path d="M193.849 102.824H175.98V31.0636H193.146V43.7271C193.146 46.4005 192.865 48.6518 192.865 48.6518H193.146C196.382 38.521 205.106 30.0786 215.94 30.0786C217.066 30.0786 218.192 30.2193 219.317 30.36V47.9483C218.614 47.8076 216.503 47.6669 214.955 47.6669C200.322 47.6669 193.849 60.3304 193.849 73.8381V102.824Z" fill="white"/>
<path fill-rule="evenodd" clip-rule="evenodd" d="M259.664 104.512C237.854 104.512 220.266 89.0344 220.266 66.9436C220.266 44.9934 237.854 29.3751 259.523 29.3751C281.473 29.3751 299.061 44.9934 299.061 66.9436C299.061 89.0344 281.473 104.512 259.664 104.512ZM259.664 44.5713C247.985 44.5713 238.417 53.7172 238.417 66.9436C238.417 80.3106 247.985 89.3158 259.664 89.3158C271.342 89.3158 281.051 80.3106 281.051 66.9436C281.051 53.7172 271.342 44.5713 259.664 44.5713Z" fill="white"/>
<path d="M342.791 104.512C319.012 104.512 303.815 87.768 303.815 66.9436C303.815 46.5412 319.012 29.3751 342.791 29.3751C352.377 29.3751 363.199 32.5303 370.107 39.7889L359.804 50.1014C355.417 46.7866 349.597 44.5713 343.776 44.5713C330.55 44.5713 321.967 54.5614 321.967 66.8029C321.967 78.9036 330.55 89.3158 344.339 89.3158C350.337 89.3158 356.686 86.8607 361.724 83.2655L371.82 93.3708C365.018 100.234 354.038 104.512 342.791 104.512Z" fill="white"/>
</svg>
